<svg width="243" height="19" fill="none" xmlns="http://www.w3.org/2000/svg"><path d="M223 0a24 24 0 0 0-9 2.2c-2.2 1.2-3.3 2.4-3.3 3.9 0 1 .5 1.7 1.8 2.5 1.2.8 2 1 3.3 1 1.2 0 2-.3 2.6-.9.7-.8.4-1.3-1.3-1.9-1.3-.5-1.5-.6-1.3-1.1.2-.5 1.9-1.4 3.1-1.7 1.4-.3 3.7-.4 5.5-.2 3.8.6 6.7 2.8 6.7 5.2 0 1.3-.8 2.2-3 3-3.9 1.5-8 1.8-13.8 1l-10.8-2.2a38.7 38.7 0 0 0-25.6 1 57.8 57.8 0 0 1-12.6 2.9c-4.1.4-10.5.2-16.5-.7a174 174 0 0 1-23-5.5A171.4 171.4 0 0 0 100.5 3a86.8 86.8 0 0 0-17.8-.7c-5.9.6-11.4 2-24.5 6.4-9.5 3-13 4.1-16.4 4.7a86 86 0 0 1-15.4.6A67 67 0 0 1 3 8.3C.4 7.1-.2 6.9.1 7.4c.2.4 3 1.9 5.1 2.8a74.6 74.6 0 0 0 35 5.4c4.7-.4 9.1-1.4 21.3-5 13.8-4 18.6-5.2 24.2-5.6 2.3-.2 7.9 0 12.3.6 7.5.9 13.3 2.2 26.8 6 7.1 2 9.8 2.7 13.7 3.6a114.7 114.7 0 0 0 27.1 2.8c4.2-.3 7.6-.8 14.2-2.4 6-1.5 7.9-1.8 10.5-2 3.6-.4 5.7 0 14 1.8 9.5 2 13.8 2.7 19 2.7 5 0 9.2-.7 13.5-2.3 3.3-1.1 5-2.2 5.8-3.8.6-1 .5-4.4 0-5.5-1.3-2.5-4.5-4.3-10-5.6-3.3-.7-6.7-1-9.7-.8Z" fill="#8F795C"/></svg>