<svg width="98" height="105" viewBox="0 0 98 105" fill="none" xmlns="http://www.w3.org/2000/svg">
<g clip-path="url(#clip0_1502_6071)">
<path d="M4.74326 0.138864C4.32733 0.320292 3.99671 0.693818 3.78341 1.18474C3.41013 2.08121 3.68742 2.63616 4.9139 3.47927C5.99107 4.21566 18.1386 11.8036 32.3977 20.6402L43.9373 27.7906V32.1128C43.9373 36.8513 43.852 39.7969 43.7027 39.7969C43.564 39.7969 42.7215 39.2846 21.2208 26.2111C8.77466 18.6338 2.30097 14.8132 1.70373 14.6638C1.53309 14.6211 1.26646 14.6851 0.957173 14.8452C0.103972 15.2827 -0.258639 16.3713 0.199957 17.1397C0.455918 17.5559 0.754541 17.7587 5.2232 20.5548C11.2169 24.3114 19.3757 29.3274 34.744 38.6763L43.8306 44.2045V44.9622C43.8306 45.3784 43.884 47.1607 43.9373 48.9216C44.0653 52.529 43.9586 52.1337 44.9931 52.8276C45.6117 53.2333 46.1876 53.2437 46.7529 52.8598C47.3927 52.422 47.4567 52.1446 47.5847 49.2204C47.6914 47.1287 47.734 46.6271 47.8514 46.6698C47.926 46.7018 49.5578 47.6836 51.4559 48.8362L54.9221 50.9495V58.3877V65.8372H56.7356H58.5486V59.5407C58.5486 56.0722 58.5698 53.2437 58.6015 53.2437C58.6337 53.2437 60.2868 54.2362 62.281 55.4422L65.9075 57.6408V61.7387V65.8372L67.7521 65.8159L69.5869 65.7837L69.6399 54.8766C69.6721 48.8789 69.7255 43.9483 69.7572 43.9056C69.7894 43.8736 70.2907 44.1404 70.856 44.4926C72.1889 45.3357 72.7328 45.5598 73.405 45.5598C74.0662 45.5598 74.5567 45.2931 74.8661 44.7915C75.1432 44.3326 75.1432 43.5855 74.8765 43.148C74.6527 42.7851 73.4901 41.942 71.3999 40.6186C69.7785 39.6047 69.6825 39.498 69.5973 38.6442C69.5226 37.8759 69.3736 37.5237 68.9039 37.0861C68.4456 36.6486 67.5284 36.5739 66.835 36.9047C66.5791 37.0221 66.2911 37.1288 66.1846 37.1288C65.8857 37.1288 64.8196 36.5312 61.588 34.5354L58.6015 32.6998L58.5486 31.6326C58.4951 30.5013 58.4313 30.3092 57.9403 29.8503C57.3112 29.2527 56.5965 29.1886 55.861 29.6476C55.5833 29.8183 55.3062 30.0638 55.2423 30.1812C55.1785 30.3092 55.0824 30.4053 55.029 30.4053C54.9221 30.4053 50.2725 27.5238 49.1098 26.7447C47.958 25.9656 47.6701 25.6988 47.5527 25.2613C47.4994 25.0265 47.2541 24.6423 46.9875 24.3755C46.5396 23.9059 46.5289 23.8953 45.825 23.8953C44.4492 23.8953 45.0251 24.2261 24.8469 11.7289C11.3769 3.38322 6.34303 0.288275 5.93776 0.11752C5.55383 -0.0425638 5.14851 -0.0425638 4.74326 0.138864ZM49.7711 31.4511C50.8165 32.0915 52.4053 33.0627 53.3011 33.6176L54.933 34.6208L54.9008 40.5119C54.8795 44.2578 54.826 46.4456 54.7622 46.5097C54.6875 46.5844 53.461 45.8907 51.1149 44.4606L47.5634 42.3048V38.3027C47.5634 33.8524 47.6594 30.2986 47.7874 30.2986C47.83 30.2986 48.7152 30.8215 49.7711 31.4511ZM61.0332 38.4095C64.5315 40.5759 65.6298 41.3123 65.7684 41.6111C65.9179 41.8993 65.9392 48.0038 65.8115 51.5151L65.7471 53.3506L62.1746 51.1843L58.6015 49.007L58.5698 42.9558C58.559 39.6261 58.5802 36.9154 58.6337 36.9367C58.6763 36.9474 59.7538 37.6197 61.0332 38.4095Z" fill="#656D6F"/>
<path d="M13.9262 70.0739C14.0542 70.8317 15.2807 74.428 15.9099 75.9222C18.5655 82.1866 22.8955 87.811 28.2707 92.0051C30.3824 93.6489 32.3981 94.9079 35.107 96.2635L36.5788 97H55.9572H75.3464L77.2341 95.9966C79.452 94.8119 81.2546 93.6806 82.8439 92.4964C88.8481 87.9819 93.3808 82.0801 96.1001 75.218C96.9108 73.169 97.9136 70.0739 97.7963 69.9566C97.6255 69.7857 80.3696 69.7005 45.772 69.6896L13.8516 69.6787L13.9262 70.0739ZM88.5284 74.8123C88.9119 75.0793 89.2638 75.8262 89.2638 76.3596C89.2535 77.7578 84.6247 83.9052 81.2867 86.9359C78.7694 89.2305 75.1543 91.856 73.5012 92.592C72.5093 93.0298 71.8802 92.8589 71.3363 92.0051C71.0799 91.5999 71.0269 91.3969 71.0269 90.8739C71.0269 90.2656 71.0482 90.223 71.4962 89.7961C71.752 89.5505 72.6588 88.8571 73.5012 88.2702C78.567 84.7373 81.6174 81.6958 84.8915 76.8826C86.1496 75.0362 86.406 74.7375 86.8752 74.588C87.3123 74.4493 88.1868 74.5667 88.5284 74.8123Z" fill="#656D6F"/>
<path d="M38.1797 102.762V104.577H55.6169H73.0545V102.762V100.948H55.6169H38.1797V102.762Z" fill="#656D6F"/>
</g>
<defs>
<clipPath id="clip0_1502_6071">
<rect width="98" height="105" fill="white"/>
</clipPath>
</defs>
</svg>
