<svg width="213" height="217" viewBox="0 0 213 217" fill="none" xmlns="http://www.w3.org/2000/svg">
<g clip-path="url(#clip0_1502_6077)">
<path d="M183.2 4.67222C180.6 7.27222 168.8 20.9722 157 35.0722C108.6 92.6722 100.6 101.972 99.5 101.972C98.9 101.972 95.1 100.372 91.2 98.4722C84.3 95.1722 83.8 95.0722 75.8 95.6722C70.7 95.9722 66.8 96.7722 65.8 97.6722C64.9 98.4722 62 99.2722 59.3 99.4722C53.2 99.7722 51.5 100.472 50.2 103.572C49.1 105.872 47.2 106.472 42.6 105.972C39.6 105.672 35.2 107.972 34.6 110.272C34 112.972 29.8 115.172 19.4 118.472C6 122.572 0 128.372 0 136.872C0 141.472 3.7 156.472 6.9 165.072C12.4 179.572 24 192.072 37.5 198.072L42 200.072L40.5 202.972C38.3 207.172 38.5 207.672 43.6 210.972C50.9 215.572 60.7 217.272 76.8 216.772C92.4 216.172 98.9 214.472 104.7 209.472L108.4 206.272L106.6 203.572C105.6 202.072 105 200.672 105.2 200.472C105.4 200.372 108.9 198.472 113 196.472C123.7 191.072 132.8 181.772 138 170.872C145.1 155.672 148.7 137.172 145.6 131.172C143.2 126.472 134.9 120.372 129 118.972C126.3 118.272 123.7 117.372 123.4 116.872C123.1 116.372 122.1 115.972 121.2 115.972C120.2 115.972 119 114.672 118.3 112.972L117.2 109.972L140.3 88.1722C153.1 76.1722 174.4 56.1722 187.7 43.5722C202.2 30.0722 212.2 19.8722 212.6 18.3722C213.5 14.7722 212.4 12.9722 209.3 12.9722C206.5 12.9722 206.7 12.7722 138.2 80.4722C124.3 94.1722 112.6 105.572 112.2 105.772C111.8 105.872 110.6 105.372 109.5 104.572C107.7 103.272 108.2 102.572 118 91.4722C123.8 85.0722 130.8 77.1722 133.5 73.9722C136.3 70.8722 149.3 56.2722 162.5 41.4722C193.4 7.07222 193.2 7.27222 192.8 3.47222C192.3 -1.52778 188.8 -1.12778 183.2 4.67222ZM85.9 97.6722C88.9 100.272 87.2 101.672 81.8 101.172C76.7 100.772 76.1 100.072 78.6 97.5722C80.6 95.4722 83.3 95.5722 85.9 97.6722ZM74.8 98.1722C77.2 100.572 76 101.572 71 101.572C66 101.472 64.9 100.472 67.2 98.1722C68.7 96.6722 73.3 96.6722 74.8 98.1722ZM64 100.972C64 101.472 63.3 101.972 62.5 101.972C61.7 101.972 61 101.472 61 100.972C61 100.372 61.7 99.9722 62.5 99.9722C63.3 99.9722 64 100.372 64 100.972ZM57 101.672C55.6 101.972 54.1 102.572 53.5 103.072C52.9 103.672 53.7 103.772 55.7 103.372C61.4 102.272 65.4 106.772 61.5 109.972C59.6 111.572 55.4 111.572 53.5 109.972C52.2 108.872 51.7 103.772 52.7 101.672C52.9 101.272 54.6 101.072 56.3 101.072C59 101.272 59.1 101.272 57 101.672ZM95 101.772C95 103.272 92.6 104.972 90.5 104.972C87.6 104.972 86.8 103.972 88.1 102.272C89.3 100.872 95 100.472 95 101.772ZM73.5 103.172C78.3 105.372 75.9 110.972 70.1 110.972C67.5 110.972 63.9 107.472 64.6 105.572C65.1 104.372 68.4 102.172 70.2 102.072C70.6 101.972 72.1 102.472 73.5 103.172ZM84.8 103.672C85 104.372 84.5 104.972 83.7 104.972C82.8 104.972 81.3 106.072 80.2 107.472C79.1 108.772 78 109.572 77.6 109.272C76.8 108.372 76.8 103.472 77.7 102.572C78.8 101.472 84.3 102.372 84.8 103.672ZM100.9 103.872C101.9 104.472 101.9 105.172 101.1 106.772L100 108.872L97.6 106.672C95.9 105.172 95.5 104.272 96.3 103.772C97.9 102.772 99.2 102.772 100.9 103.872ZM109.8 106.572C112.7 108.572 112.6 110.772 109.6 112.072C104.1 114.572 98.8 110.172 103 106.772C105.7 104.572 106.9 104.572 109.8 106.572ZM86.5 109.972C86.5 114.572 84.5 115.272 81.5 111.972C79.8 110.072 79.8 109.872 81.5 107.972C84.6 104.572 86.6 105.372 86.5 109.972ZM96.8 107.172C98.6 108.972 98.3 109.972 95.8 109.972C94.6 109.972 92.9 110.672 91.9 111.572C89.7 113.572 87 112.772 87 110.072C87 106.572 94.1 104.472 96.8 107.172ZM45.1 108.872C49.3 112.372 44.8 116.172 38.4 114.572C33.8 113.372 36.1 107.072 41.1 106.972C42 106.972 43.8 107.872 45.1 108.872ZM51.3 109.172C51.7 110.472 51.4 111.772 50.7 112.172C48.9 113.372 48 113.172 48 111.572C48 110.772 47.7 109.472 47.4 108.572C47 107.472 47.4 106.972 48.8 106.972C50 106.972 51 107.872 51.3 109.172ZM77.4 110.572C80.3 111.672 79.1 112.972 75.3 112.972C71.7 112.872 71.6 112.772 73.4 111.472C75.7 109.772 75.4 109.772 77.4 110.572ZM62.6 114.572C62.2 115.472 61.5 115.772 60.8 115.272C59 114.172 54.8 114.872 52.9 116.572C49.8 119.372 46.7 117.372 49.6 114.472C50.7 113.472 52.6 112.972 54.9 113.072C56.9 113.272 59.4 112.872 60.5 112.272C62.7 110.972 63.6 111.972 62.6 114.572ZM101.4 112.572C104.5 115.672 99.7 119.872 94.5 118.572C91.3 117.772 90.2 114.072 92.6 112.272C95 110.472 99.5 110.672 101.4 112.572ZM116.8 113.572C117.2 116.272 114.9 117.272 110.3 116.372L106.8 115.672L109.6 113.372C113.1 110.472 116.4 110.672 116.8 113.572ZM68.8 113.572C67.9 114.472 66.7 114.872 66.1 114.472C64.5 113.472 65.8 111.972 68.3 111.972C70.3 111.972 70.3 112.072 68.8 113.572ZM38.2 115.972C40 117.072 41.1 117.972 40.5 118.072C34.1 118.572 29 118.472 29 117.872C29 116.972 33 113.972 34.2 113.972C34.6 113.972 36.4 114.872 38.2 115.972ZM78 115.372C78 117.672 76.8 117.772 73 115.772L69.5 113.972H73.8C76.8 113.972 78 114.372 78 115.372ZM84.6 114.972C86.3 114.972 86.1 119.972 84.4 120.672C83.7 120.872 82.2 120.672 81.1 119.972C77.9 118.272 78.5 113.172 81.8 114.472C82.5 114.772 83.8 114.972 84.6 114.972ZM65 115.872C65 116.472 64.6 117.172 64 117.472C63.5 117.772 63 117.372 63 116.572C63 115.672 63.5 114.972 64 114.972C64.6 114.972 65 115.372 65 115.872ZM59.9 116.372C59.7 116.572 57.9 116.972 56 117.372C53.5 117.772 52.9 117.672 54 116.972C55.4 116.072 60.9 115.472 59.9 116.372ZM74.5 117.272C77.3 119.372 75.4 120.972 69.9 120.972C66.3 120.972 65 120.572 65 119.472C65 116.372 71.2 114.872 74.5 117.272ZM89.5 119.772C87.3 120.272 86.6 119.472 87.4 117.272C88.1 115.572 88.2 115.572 89.6 117.472C90.9 119.272 90.9 119.472 89.5 119.772ZM44.7 117.572C44.4 117.872 43.5 117.972 42.8 117.672C42 117.372 42.3 117.072 43.4 117.072C44.5 116.972 45.1 117.272 44.7 117.572ZM112.8 119.172C115.6 121.472 112.7 125.972 108.4 125.972C105.5 125.972 101.8 122.572 102.6 120.572C103.8 117.372 109.5 116.572 112.8 119.172ZM123 117.972C124.1 118.672 123.9 119.072 121.8 119.872C120.4 120.372 118.6 121.772 117.8 122.872C117 124.072 116 124.672 115.7 124.272C114.8 123.472 114.8 118.472 115.7 117.672C116.6 116.672 121.3 116.872 123 117.972ZM61.4 118.572C63.4 119.372 63.5 120.972 61.6 120.972C60.8 120.972 59.2 122.172 58.1 123.672C55.7 126.572 54.7 126.272 54.5 122.172C54.3 118.372 57.1 116.872 61.4 118.572ZM28 120.372C28 121.872 22.5 123.072 20 122.172C19 121.772 19.9 121.072 22.5 120.372C27.8 118.772 28 118.772 28 120.372ZM39.7 121.672C42.8 125.572 36 129.472 31.4 126.472C28.4 124.472 28.6 121.972 32 120.272C34.8 118.872 37.9 119.472 39.7 121.672ZM52.5 120.972C54.2 122.872 54.2 123.072 52.5 124.972C49.5 128.272 42 126.972 42 123.172C42 118.772 49.2 117.272 52.5 120.972ZM101.4 120.372C101.1 121.172 101.4 122.872 102.1 124.172C103.3 126.372 103.2 126.472 101.3 124.672C100.2 123.772 98.8 122.972 98.2 122.972C96 122.972 95.9 120.972 98.2 120.072C101.5 118.672 102 118.772 101.4 120.372ZM124.1 123.272C123.6 124.672 123.6 126.272 124.1 127.272C124.9 128.572 124.7 128.972 123.1 128.972C121.1 128.972 118 126.572 118 124.972C118 123.472 121.1 120.972 123 120.972C124.6 120.972 124.8 121.372 124.1 123.272ZM135.4 123.172C137 125.772 135 128.372 131.1 128.772C126 129.272 123.1 125.272 126.2 122.172C128 120.372 134.1 121.072 135.4 123.172ZM63.5 126.372C63.5 129.772 63.2 130.572 62 130.172C57.8 128.672 56.6 124.872 59.8 123.072C62.8 121.272 63.5 121.872 63.5 126.372ZM72.4 122.772C74.3 125.972 68.2 131.272 65.4 128.872C63.6 127.372 63.6 126.072 65.7 123.772C67.3 121.972 71.5 121.272 72.4 122.772ZM83.5 123.972C85.6 126.272 84.9 128.572 81.5 130.172C78 131.772 74 129.872 74 126.572C74 122.072 80.3 120.372 83.5 123.972ZM92 123.472C93.5 125.372 92.6 126.472 88.8 127.372C86.7 127.872 86 127.672 86 126.572C86 125.772 85.7 124.472 85.4 123.572C84.6 121.372 90.3 121.372 92 123.472ZM22.8 125.272C26.7 128.272 21.4 133.172 16.2 131.372C12.6 130.172 12.5 126.072 15.9 124.372C18.3 123.172 20.4 123.472 22.8 125.272ZM28.3 125.372C29.8 127.572 29.7 127.772 27.4 128.772C25.3 129.772 25 129.672 25 128.072C25 126.972 24.7 125.472 24.4 124.572C23.4 122.072 26.6 122.672 28.3 125.372ZM99.8 125.172C101.1 126.272 101.4 129.572 100.2 130.272C99.1 131.072 94 126.272 94 124.472C94 123.272 94.6 122.972 96.3 123.572C97.5 123.872 99.1 124.672 99.8 125.172ZM11.9 126.872C11.3 128.672 9.9 130.072 8.4 130.372C5.6 131.072 4.2 135.272 6 137.472C6.7 138.272 7.7 138.972 8.2 138.972C8.8 138.972 10.8 140.272 12.7 141.972C14.5 143.572 17.1 144.972 18.4 144.972C19.7 144.972 21.4 145.672 22.1 146.672C23.4 148.172 23.2 148.272 20.5 147.572C15.3 146.472 4.8 140.572 2.7 137.772C0.9 135.372 0.9 134.772 2 131.972C2.7 130.272 5 127.872 7.4 126.472C12.6 123.272 13.1 123.372 11.9 126.872ZM115.4 125.572C118.3 126.672 117.1 127.972 113.3 127.972C109.7 127.872 109.6 127.772 111.4 126.472C113.7 124.772 113.4 124.772 115.4 125.572ZM56 127.972C56 129.172 52.2 130.272 50.9 129.372C50 128.872 50.2 128.272 51.4 127.372C53.2 126.072 56 126.472 56 127.972ZM107 127.972C107 128.572 106.2 129.372 105.3 129.672C104.3 130.072 103 131.072 102.3 131.872C101.5 132.972 101.1 133.072 101 132.272C101 130.572 104.2 126.972 105.7 126.972C106.4 126.972 107 127.472 107 127.972ZM139.7 131.472C139.5 131.972 138.1 133.172 136.7 133.972C134.3 135.272 133.7 135.272 131.3 133.972C128 132.072 128.1 130.672 131.7 130.172C133.3 129.972 135.2 129.172 136 128.372C137.3 127.072 137.6 127.172 138.8 128.672C139.5 129.572 139.9 130.872 139.7 131.472ZM145 134.472C145 135.772 144.6 137.172 144 137.472C143.4 137.772 143.3 137.372 143.6 136.572C143.9 135.672 143.3 133.472 142.1 131.672C139.3 127.072 139.5 125.872 142.5 129.272C143.9 130.772 145 133.172 145 134.472ZM41 128.872C41 129.372 40.4 130.272 39.6 130.872C38 132.172 36.4 130.672 37.5 128.972C38.3 127.772 41 127.672 41 128.872ZM47.6 129.472C49.2 130.272 51.5 130.972 52.8 130.972C56 130.972 55.4 133.172 51.6 135.572C48.4 137.572 42 137.872 42 135.972C42 133.972 45.3 132.772 49 133.272C51.2 133.572 53 133.572 53 133.372C53 132.572 45.7 129.972 44.9 130.572C44.4 130.872 43.5 130.772 42.9 130.372C42.1 129.972 42.2 129.472 43.1 128.872C44.8 127.772 44.3 127.672 47.6 129.472ZM95.5 128.972C95.8 129.472 95.5 129.972 94.7 129.972C93.9 129.972 92.1 130.872 90.6 132.072C87.9 134.172 86 133.872 86 131.472C86 128.672 94 126.572 95.5 128.972ZM34.5 129.572C35.7 130.072 35.1 130.672 32.1 132.072C29.8 133.072 28 134.372 28 134.972C28 136.472 26.3 136.172 25.6 134.472C24.4 131.172 30.2 127.972 34.5 129.572ZM75.7 130.972C78.1 132.372 78.8 133.372 78.3 134.672C77.7 136.272 77.8 136.372 79.6 134.972C81.3 133.572 81.4 133.572 80.1 135.172C78.9 136.772 78.5 136.772 75.8 135.372C74 134.372 71.8 134.072 69.9 134.472C66.3 135.272 65.9 132.872 69.2 130.572C72 128.572 71.8 128.572 75.7 130.972ZM112.8 129.572C115.9 130.172 115.9 130.272 114.5 132.972C113.7 134.472 112.4 135.972 111.6 136.272C109.1 137.272 103 135.872 103 134.272C103 132.172 108 130.672 110.9 131.972C112.2 132.572 113.5 132.772 113.8 132.572C114.1 132.272 112.8 131.372 110.9 130.572C107.2 128.972 107.9 128.572 112.8 129.572ZM122.5 129.972C123.4 129.972 123.8 131.072 123.8 132.972C123.7 136.172 122.3 136.772 118.9 134.972C115.9 133.272 116.6 128.272 119.8 129.472C120.5 129.772 121.8 129.972 122.5 129.972ZM63.3 132.172C64.8 132.672 66 133.772 66 134.572C66 136.572 64.2 136.272 63.7 134.172C63.3 132.872 63.2 133.072 63.1 134.672C63.1 135.972 62.7 136.972 62.3 137.072C60 137.372 51 137.472 51 137.172C51 135.972 56.4 135.172 58.8 135.972C61.3 136.872 61.4 136.872 59.6 135.472C58.6 134.672 57.3 133.872 56.8 133.772C56.3 133.572 56.2 132.672 56.6 131.672C57 130.472 57.8 130.072 58.9 130.472C59.8 130.872 61.7 131.672 63.3 132.172ZM15.3 132.172C18.6 133.772 18.7 135.472 15.5 137.572C11.1 140.472 3.9 136.272 6.9 132.572C8.5 130.672 11.6 130.572 15.3 132.172ZM42.1 133.272C40.8 134.572 39.5 133.572 40.5 132.072C40.8 131.472 41.6 131.272 42.2 131.572C42.8 131.972 42.8 132.572 42.1 133.272ZM98.4 131.972C102.9 133.672 101.2 138.972 96.1 138.972C93.4 138.972 90 136.372 90 134.272C90 133.572 91 132.472 92.3 131.972C95.2 130.772 95.4 130.772 98.4 131.972ZM127.8 132.972C128.9 134.772 128.8 134.972 127 134.972C125.7 134.972 125 134.272 125 132.972C125 131.872 125.3 130.972 125.8 130.972C126.2 130.972 127.1 131.872 127.8 132.972ZM83.4 132.872C83.8 133.372 83.1 133.572 82 133.272C79.7 132.672 79.4 131.972 81.4 131.972C82.2 131.972 83.1 132.372 83.4 132.872ZM23 133.972C24.2 134.772 24.2 135.272 22.4 137.672C21.3 139.172 20.1 141.272 19.7 142.172C18.9 144.472 17.8 144.472 14.9 142.072L12.5 140.172L15.3 139.072C16.8 138.472 18.3 137.272 18.6 136.472C19 135.472 19.9 135.172 21.1 135.472C23.8 136.372 23.5 135.072 20.8 133.972C19.5 133.472 19.2 133.072 20 133.072C20.8 133.072 22.2 133.472 23 133.972ZM40 134.972C40.8 136.472 40.6 137.372 39 138.972C37.9 140.072 36.2 140.972 35.3 140.972C33.3 140.872 29 137.672 29 136.272C29 132.672 38.2 131.572 40 134.972ZM142.2 135.572C141.6 139.872 141.2 140.572 138 142.772C136.2 143.972 134.5 144.772 134.2 144.572C133.4 143.672 135.3 141.772 138.4 140.372C141.4 139.072 141.4 139.072 139 138.972C137.5 138.972 135.9 138.472 135.2 137.772C134.4 136.972 134.9 136.272 137.3 134.972C141.2 132.872 142.6 133.072 142.2 135.572ZM89.5 137.072C90.1 137.672 89.8 138.572 88.9 139.472C87.1 141.272 78.7 140.472 79.3 138.572C80.3 135.572 86.8 134.572 89.5 137.072ZM77.1 138.172C78.1 139.972 77.9 140.572 76 142.172C73.1 144.572 71.7 144.472 68.3 141.572C65.9 139.572 65.8 138.972 66.9 137.572C69 135.072 75.6 135.472 77.1 138.172ZM120.4 137.572C122.3 139.372 122.3 139.572 121 142.072C119.1 145.472 110 143.772 110 139.972C110 138.172 113.3 135.972 116 135.972C117.6 135.972 119.6 136.672 120.4 137.572ZM133.4 137.872C134.8 139.372 134.9 140.272 134 141.872C132 145.672 123 144.072 123 139.972C123 136.072 130.4 134.572 133.4 137.872ZM108.7 138.572C109 139.372 108.7 141.272 108 142.772C106.8 145.372 106.8 145.372 106 143.372C105.5 142.172 104.2 140.572 103.1 139.772C100.6 137.972 101.4 136.972 105.2 136.972C106.9 136.972 108.3 137.572 108.7 138.572ZM29.8 139.572C34.8 143.072 29.3 148.772 23.5 146.172C20.2 144.672 20 140.272 23.3 138.972C26.5 137.672 27.3 137.772 29.8 139.572ZM46.4 138.572C48 139.172 48.5 141.572 47.4 144.372C46.7 146.272 45 146.472 45 144.672C45 143.872 44.1 142.472 43 141.472C41.4 140.072 41.3 139.472 42.2 138.772C43.8 137.872 44.4 137.772 46.4 138.572ZM58.9 138.872C61.3 140.372 59.2 141.772 54.5 141.772C49.8 141.772 48.8 140.772 51.8 139.072C53.9 137.772 57 137.672 58.9 138.872ZM96.1 140.972C98.9 142.472 98.5 146.372 95.4 147.772C91.8 149.472 88.1 148.272 87.3 145.172C86.3 140.972 91.4 138.572 96.1 140.972ZM103.4 141.572C106.2 144.372 104.6 147.972 100.6 147.972C98.8 147.972 98.5 147.272 98.5 143.972C98.4 140.872 98.8 139.972 100.1 139.972C101.1 139.972 102.6 140.672 103.4 141.572ZM42.1 141.972C45 143.572 44.6 147.772 41.4 149.172C35.8 151.772 30.5 145.072 36 142.272C39.1 140.672 39.6 140.672 42.1 141.972ZM68.2 143.272C70.8 147.272 66.3 151.172 61.2 149.372C57.7 148.172 57.1 144.672 60.2 142.572C62.6 140.772 66.9 141.172 68.2 143.272ZM81.2 143.272C80 144.572 79 146.372 79 147.372C79 149.772 76.6 148.772 76.2 146.272C75.9 144.072 79.2 140.972 81.9 140.972C83 140.972 82.8 141.572 81.2 143.272ZM57.3 146.172C57.5 147.972 57.6 149.772 57.3 150.172C56.4 151.772 51.3 150.872 49.5 148.972C47.8 147.072 47.8 146.872 49.5 144.972C50.5 143.872 52.5 142.972 54 142.972C56.4 142.972 56.8 143.472 57.3 146.172ZM85.8 145.472C86.5 146.872 87.7 148.272 88.5 148.572C90.9 149.572 89.2 150.972 85.6 150.972C80.4 150.972 77.8 146.372 81.8 144.072C84.3 142.572 84.6 142.672 85.8 145.472ZM112.8 144.572C114.6 145.372 116.9 145.872 118 145.472C120.3 144.772 120.7 146.472 118.4 147.372C114.1 149.072 109 147.372 109 144.272C109 142.672 109 142.672 112.8 144.572ZM125.7 147.672C119.4 149.572 118.9 149.372 120.7 146.172C122.4 143.272 122.4 143.272 126.1 144.872L129.8 146.472L125.7 147.672ZM74.5 146.872C75.1 147.972 71.2 149.472 70.2 148.472C69.8 148.172 70.2 147.472 71 146.972C72.9 145.772 73.7 145.772 74.5 146.872ZM105.5 151.772C94.8 153.372 61.2 153.872 48.6 152.572L39.6 151.772L42.1 149.872C45.2 147.472 46.3 147.472 48.5 149.972C50.5 152.172 57.4 152.772 58.5 150.972C58.9 150.372 59.9 150.172 60.8 150.372C61.8 150.672 65.6 150.572 69.4 150.072C74.8 149.472 77 149.572 79.2 150.772C82.7 152.472 88.5 152.572 90.5 150.972C91.2 150.372 94.3 149.672 97.3 149.472C100.4 149.372 103.8 148.572 105 147.672C107 146.272 107.5 146.372 110.8 148.272L114.5 150.472L105.5 151.772ZM33.6 149.072C35.5 151.172 35.5 151.272 33.5 150.672C32.4 150.372 29.7 149.772 27.5 149.372L23.5 148.572L26.5 147.872C31.3 146.772 31.6 146.872 33.6 149.072Z" fill="#656D6F"/>
</g>
<defs>
<clipPath id="clip0_1502_6077">
<rect width="213" height="217" fill="white"/>
</clipPath>
</defs>
</svg>
