<svg width="1280" height="1280" fill="none" xmlns="http://www.w3.org/2000/svg"><path d="m630 39-18 8-8 4-2-2c-4-3-11-4-15-2l-8 2-6 1h-6c-4-1-7-1-13 3-5 3-7 7-8 16v7h-4l-19-4-4-5c-4-8-8-8-13-2l-8 4-5 2c-2 2-3 8-4 15 0 7 0 7 2 10 8 8 1 10-11 3-4-2-7-2-13-1-5 2-12 9-12 13 0 3 4 12 7 14l2 2-2 4c-4 4-4 6 0 8 3 2 3 3 0 5-2 1-3 1-4-1s-3-5-3-8l-3-7c-1-3-22 2-23 6-1 2-2 2-5 2-7 0-10-5-10-18 0-6 0-7-2-8s-5 0-7 3c-1 2-2 3-4 2-4 0-7 1-9 5s-2 8-1 13c2 5-1 11-11 20-5 4-8 9-9 10l-1 12v11c2 3 2 4 1 6s-3 3-7 1c-3-2-4-2-6-11l-2-13c0-5-3-10-7-10-5 0-10-2-17-10l-7-7v-10c0-18-3-20-14-13-6 4-7 6-7 10s-4 7-7 6c-5-1-6 6-3 16l1 5-3 2-7 11-4 9-4-2-3-2-3 4-4 3-6-1-12-2c-5-1-5-1-8 2-4 3-4 3-12 3-7-1-9-1-12 1-5 2-8 3-9 1-2-2-6-1-9 3-3 3-5 3-9 4l-8 2-3 1v8c1 8 1 9 4 12l7 5c3 2 4 3 4 6 0 7 7 19 12 19 2 0 4 3 4 5l-3 5c-3 3-3 4-3 7 0 4-1 4-7 8-4 2-8 4-9 6l-4 3-7 2c-5 2-6 2-8 1-6-4-8 2-3 8 6 7 9 12 9 19 1 10 2 11 9 11l9 1c3 0 3 0 3 5-1 3-1 5 1 6 1 2 1 2-1 2-3 0-5 3-5 10-1 5-1 8-3 10-3 4-3 9 0 14v4c-1 5 1 10 9 19 7 7 9 9 12 9l9 3c5 3 6 3 17 2h15c3-1 3-1 3 2l2 3v7c-1 7-2 7-4 7-4 0-9 7-11 16 0 6 1 7 9 8 7 0 9 0 17-2l14-4c3-1 6-3 13-10s9-9 11-14l4-10 3-6 4-2c5-1 11-7 11-11s4-9 10-11l10-5c4-3 5-3 10-3s6 0 12 4c7 5 16 10 19 10 2 1 4 1 5-1l3-3 10 8 12 7 3 5 7 10c4 5 6 6 9 6s6-2 6-5c0-2 1-1 7 1l9 3c2 1 14 14 16 18l2 14 3 16 2 12 1 9 4 4c5 3 5 4 6 12 1 5 3 8 4 9l3 8c1 6 1 7-1 9-3 6-1 17 3 18l18 6v8c0 5 0 6 2 8l7 4c5 0 6 0 12 6l9 12c2 5 4 8 6 8l3 4 6 7c4 4 6 5 10 6 13 1 17 3 17 9 0 3 3 6 5 6 4 0 8 6 11 16l4 8 10 3c13 5 19 10 19 17 0 3 8 18 10 19l6 3c5 1 10 4 12 8l8 10c4 4 6 5 15 8l13 5 5 7c4 9 9 11 18 7 7-3 11-3 17-1 7 4 18 7 20 7 8-2 8-3 15 5 4 4 7 9 9 13l8 11c4 4 4 5 3 8 0 5 2 8 7 10 4 2 8 2 14-1 3-1 3-1 7 2l6 5c3 1 3 2-4 7-3 2-3 3-3 9 0 5 0 6 2 6l7-3c5-2 7-2 16-3s12-1 14-3c4-2 4-2 7 5l6 11c5 7 5 10 2 15-2 4-2 5 0 11 1 6 2 7 6 9 2 2 6 3 7 3l3 1c0 3 5 8 11 10l9 6 5 2 7-5 5-5 4 3c6 3 11 14 12 25l2 10 4 8c2 8 7 18 11 23 5 5 5 5 5 17l3 16 3 14c0 4 0 5 3 7 4 3 5 6 5 12-1 7-6 12-10 12-3-1-5 0-9 3l-6 4c-7 0-8 6-2 14l3 6-3 7c-3 8-6 12-11 15l-7 7c-3 5-3 6-2 15 0 12 1 17 2 18l25 3c7 0 14-3 19-6 4-3 11-16 11-20 0-3 6-12 9-14l6-2c5-1 9-4 12-8 1-3 2-5 2-22v-21c2-4 12-11 22-15s10-4 13-2h8c6-2 8-3 9-8l1-5-3-5c-4-5-4-8-2-12 2-5 1-9-1-11v-6c2-4 2-6 1-10-2-4-7-8-15-11-7-4-9-5-21-18-5-5-7-6-13-8l-7-3 6-9c7-8 8-11 8-19 0-6 1-8 6-13l7-13c4-9 4-10 15-20l12-11 4 3 4 3-6 2c-5 1-5 2-6 4 0 3 0 3 4 5l8 2 8 2c13 7 17 8 23 8l11-1c9-3 12 2 20 32 2 8 23 27 31 27 3 0 8-5 9-9l3-12 5-15 3-11c1-4 0-5-6-10l-11-14c-7-11-16-19-22-21-5-1-5-2-7-6s-3-4-9-7l-23-11c-15-8-16-8-24-17-9-10-18-16-28-18l-14-5-22-9c-16-6-18-7-22-12l-13-7-11-6c-4-3-11-14-11-16 0-3 4-8 7-9 4-2 15-12 15-14l2-4 2-3c0-5-13-14-21-15-6-1-15 2-19 6l-3 3-3-3c-5-3-10-4-16-2-6 3-15 3-15 1 0-3-4-4-8-3-8 1-21-4-29-10l-8-4c-5-1-5-2-7-8-4-7-9-12-19-18s-12-8-15-15c-2-7-4-8-12-10-7-2-14-10-15-18l-6-15-6-16a168 168 0 0 0-14-44l-3-10-2-7-1-8c-1-3-7-9-11-11l-13-9-12-8-12-9c-9-8-14-11-22-14-4-2-25-19-33-28-5-5-6-7-9-17-3-8-4-13-4-17l-3-15c-3-9-4-13-2-19 1-5 1-5 3-4 1 1 3 2 4 1 3-1 7-5 8-9l2-4c2 0 4-5 4-7-1-4-7-11-14-15l-5-3v-8l-1-11c-2-4-2-10 0-16l1-9c0-2 1-3 3-4l8-4 4-3 1 3c2 4 4 5 12 3 12-4 21-8 27-13l10-9c3-2 5-4 5-6 1-4 3-4 13 0l14 3c6 0 6 0 9-3 5-4 9-5 12-1l2 3c-2 3-1 7 3 9l5 3 4 1c4 2 7-1 7-6 0-6-6-18-10-21l-9-7-5-4v-8c-1-8-2-9-6-9-3 0-2-3 2-6 6-4 9-7 9-10 0-2-3-5-6-9-7-6-7-6-10-6-3 1-4 1-5-1-2-3-1-6 2-7l8-6 8-5c5-1 7-4 5-10 0-3-1-3-10-7l-15-3-33-4-11-2c-2 1-5 0-11-3-11-5-20-8-25-8-3 1-6 0-13-6-3-3-3-3-1-7 3-7 1-10-7-11-4 0-4-1-5-4-1-2-1-4 1-6 1-3 2-12 0-14s-5-1-15 3ZM385 738l-2 4-4 7c-2 4-3 4-6 4-3-1-4-1-6 2l-8 6-8 7-6 5-7 4c-5 3-14 7-17 7l-5-3c-1-2-3-3-5-3-3 0-4-1-4-4l-3-5c-2-1-3-1-5 1-2 3-2 4-2 11s0 7-3 10c-4 4-5 7-3 15l1 8c0 3 0 3 3 3 5 0 11 3 13 7l4 6c3 4 3 4 3 11s0 7 3 7l3 1-1 12c0 12 0 12-2 16-2 2-3 4-3 9 0 8 0 8 6 8h5l-1 2c-3 1-4 9-4 23l-1 14-3 3c-3 3-3 3-3 8l1 16v6c1 1 0 2-1 5-4 5-4 8 0 9 3 2 3 2 2 7-1 13-1 14 2 14l4-3c2-3 7-6 9-6v2c0 4 3 11 6 12 3 2 17 1 25-2 10-3 20-15 16-19-1-1-1-2 1-7l2-5h4l5-1c2-3 7-1 8 2 2 4 9 9 12 9s4 0 11-11l4-7v-11c0-10 0-12 3-16 2-4 2-6 2-20 0-33 0-32 2-37 3-6 2-11-1-14-3-4-5-11-4-14 2-5 8-13 15-19 5-4 6-6 6-8 0-3-3-7-7-8l-2-3-2-11c-4-22-5-23-13-29-2-1-2-2-1-4 2-3 1-8-1-10-3-1-3-2-3-7 0-6 0-6-5-11-2-3-5-5-7-5l-5 2c-4 2-4 2-5 1-1-2-6-5-8-5l-4 2Z" fill="#BDBCBC"/><path d="m919 1072-18 8-8 4-3-2-5-2-6-1c-4-1-5-1-8 1l-5 2-15 7c-13 6-15 7-23 8h-17c-9 0-11 0-19 6l-6 2c-4 0-16-6-21-10-8-6-9-7-14-7-4 0-6-2-6-7 0-8-6-10-12-3-2 4-4 5-7 5l-11 6c-10 6-13 6-18 0l-6-5-6 3c-3 2-6 5-8 5-5 3-7 6-9 15l-2 12c-1 4 0 17 2 21 1 3 4 5 7 4l3 3c2 2 2 3 12 3 14 1 16 2 20 6 4 5 4 5 10 6 7 0 7 1 14 6l16 9c9 4 11 5 12 8l8 6 6 2 5 3c4 3 11 4 20 4 8-1 9-1 15 3 6 3 9 5 14 11l7 12c3 8 2 8 9 8h7l7 6c9 8 12 10 18 7h7c4 3 8 2 11 0 2-2 2-4 2-10s1-8 2-11l4-7 6-7 5-5c0-3-5-11-7-11-2-1-2-2-1-4l1-7c0-6 1-5-8-13-2-2-3-3-4-8 0-4 0-5 3-11l4-7 1-2 3-8c1-5 2-7 5-11 3-2 7-8 9-13l8-15 4-10c0-2 1-5 4-8 4-5 5-7 2-9-3-3-9-2-20 2Z" fill="#BDBCBC"/></svg>