<svg width="745" height="425" fill="none" xmlns="http://www.w3.org/2000/svg"><path d="M34 4c0 4 0 4 5 4a2463 2463 0 0 0 83-5l25-1 14-1 11-1h-26a623 623 0 0 0-76 3L43 4h-5l-1-1V0h-3v4ZM190 0h6-6ZM217 7a1399 1399 0 0 1 0 73l-1 18a387 387 0 0 1-3 42 768 768 0 0 1-4 56v9a369 369 0 0 1-11 64l-26 7c-12 3-14 4-16 7l-1 7-1 5a154 154 0 0 0-5 37l-9 3-12 3-9 3-17 4-4 2c-4 0-10 2-13 4l-4 4c-1 2-1 3 1 5l1 1v3l-1 7-1 7a915 915 0 0 0-4 37l-1 7v2h3l1-1v-7a335 335 0 0 1 4-34 211 211 0 0 0 2-19l15 7a142 142 0 0 0 16 6 66 66 0 0 0 12 5l3 1a97 97 0 0 0 8 3v3a187 187 0 0 1-5 20 432 432 0 0 0-2 16l2-1 2-7a1117 1117 0 0 0 7-32 49 49 0 0 0 8-3h1a199 199 0 0 1 11-5 232 232 0 0 1 14-5l-1 3a72 72 0 0 1-2 7 414 414 0 0 1-3 12h2l5-14 2-6 1-4 3-2a391 391 0 0 0 19-8l-1 4-4 12a13302 13302 0 0 1-11 49h1l1-3 2-6a169 169 0 0 0 3-10l1-5 3-12 1-3 1-3a499 499 0 0 1 12-48 426 426 0 0 1 11-49l3-12v-8c-1-1-3-3-5-3l-8 1-12 4a43 43 0 0 1 2-10 284 284 0 0 1 6-30 443 443 0 0 1 5-36c2-4 3-6 6-8l2-1 4-2 2-1 7-2h7c8 0 11 1 13 3s2 4 2 20a116 116 0 0 0 3 23l1 8a140 140 0 0 0 2 12l1 6a428 428 0 0 0 23 85l2 3 10 19 4 9 9 15 1 2 7 11 5 8a94 94 0 0 0 7 12l3 7v4h1l2-1c1-2 0-5-1-8l-5-8a173 173 0 0 1-10-17 245 245 0 0 1-14-25l1-4v-4l3-15a395 395 0 0 0 4-56c1-2 1-3-3-23l-1-7a60 60 0 0 0-2-6l-1-1-1 5a247 247 0 0 0 4 19v3l-1 1c-4 4-11 7-18 9l-3 1h-15l-2-7-1-5-1-6-2-8a555 555 0 0 1-2-12c0-4 0-4 3-3a450 450 0 0 0 28-1l-19-2a131 131 0 0 1-12-1l-2-4-2-12c-2-8-2-13-2-29v-15l3-2a41 41 0 0 0 5-4h1v-1l2 3a49 49 0 0 0 18 19l-1 3-1 2-1 1-1 4-2 5-2 10-1 4h-1l-3-1c-3-1-3-1-4-6l-1-4-4-8c-1 0-2 1-1 4l3 10v3c0 2 1 2 8 4l25 9 4 2 2-1c4 0 5-1 7-2l1-1 1 1 3 1h2l-5 4-3 2 2 2a46 46 0 0 0 17-15v-6a148 148 0 0 0-8-23l-1-3-3-6-4-5c-8-7-11-9-16-11l-4 1h-2c-1-2-2-6 0-6l2-2 4-5 4-6 1-6v-5l-1-3c2-2 3-6 2-9l-1-3-1-2v-3l-1-4-1-1-5-4-10-2c-4 0-9 2-14 6-2 2-3 3-4 7l-2 3-1 9 1 4 2 1v-4l1-9 2-3c1-4 3-5 5-7l8-4h5l9 4c2 2 2 2 1 3l-6 1-6-1h-2l-1-1h-2l-4 6c-2 2-2 4-2 5v2c-1 2-1 2-3 2s-3 1-4 3l1 5c1 2 4 4 5 3s0-2-1-3l-2-4 1-1 1 1 2-1 4-8 2-4 2-2h2a24 24 0 0 0 14 0l1 5c2 6 2 6 1 7l-1 2v7l1 4-1 2-2 3-2 3-4 4c-1 2-1 2-3 2l-3-1h-3c-1 1 0 1 1 2l1 1h2l1 3c0 4 1 5 3 7l1 2-3 10c-2 2-2 3-3 2l-3-3-9-9-5-9 1-2 1-10c0-2 0-3-2-3v2l-2 10-3 3-2 1 1-12c0-4 2-7 4-9l1-2-3-1-4 6-2 10v10l-1 1-1 1-1-8a1857 1857 0 0 1-1-116 1087 1087 0 0 0-2-51V0h-3v7l-2-2c-4-3-8-4-12-4s-7 1-12 5l-6 7-2 2v-4l-1-8V0h-3v7Zm27-3a31 31 0 0 1 8 4c1 1 3 4 3 7l2 29v23l-2-2c-3-2-5-4-10-5l-7-1-7 1-8 6-2 1V26c1-8 6-15 11-19 5-3 9-4 12-3Zm0 59 6 3 7 7 1 22v21h-2c-1-2-4-3-6-4h-3c-4-2-13 0-18 3l-9 7c-3 3-3 3-2-1v-4l1 1c1 1 2 0 3-1v-3l-2-1-2 1 1-5V93c1-16 2-18 4-22a21 21 0 0 1 10-8c2-2 7-2 11 0Zm4 52 4 2c2 1 4 3 5 6a1230 1230 0 0 1-1 53l-3-1-1-1-12-1a24 24 0 0 0-10 2l-5 2-7 5-3 4-2 1v-8a2474 2474 0 0 1 4-48c3-5 7-9 12-12l8-4h11Zm54 64 3 1 4 2 11 12a33 33 0 0 1 5 10 81 81 0 0 1 3 9l2 3 1 6 1 4 1 3-1 1-5 5v-2l-1-4-6-6h-5l-1-1 1-7v-7c0-2-1-2-2-2l-2 14-1 6-6 5-1 1h-2l-3-1-7-2-5-2v-2a80 80 0 0 1 10-31 327 327 0 0 0 5-13c0-2 0-3 1-2Zm18 48 2 3-1-1-2-1c-2 1-2 2 0 3l1 2-1-1h-3l-1 1-2 2-7-1c-1-1 4-5 7-7 4-2 5-2 7 0Zm-97 39 1 2v4l-1 3a117 117 0 0 1-3 12l-1 5-2 2-2 1a2183 2183 0 0 1-53 17l-5 2c-3 1-4 0-3-1a266 266 0 0 0 4-26c0-1 1-4 4-5l9-2a760 760 0 0 0 52-14Zm91 15c1 2-1 33-2 42l-2 16a107 107 0 0 1-2 11l-2 11-3-5-3-5-2-4-2-5-3-5-1-3-10-26-1-4-2-5a204 204 0 0 0-2-8v-1h5l13-1c6-2 13-4 16-7l2-1 1-1v1Zm-96 16-2 7a225 225 0 0 0-5 22 333 333 0 0 1-6 28l-7-2-4-2-7-3 1-3a106 106 0 0 0 3-10 51 51 0 0 0 2-7l2-8 1-5 1-8 3-2 4-2 2-1h2l1-1h2l7-3c1 0 1 0 0 0Zm-24 9-1 5a195 195 0 0 1-7 27l-2 8-2-1a971 971 0 0 1-29-14l1-12 3-2a63 63 0 0 1 6-2h2l4-1 7-2a833 833 0 0 0 18-6Zm-40 30h2l2 1 5 2 9 4a198 198 0 0 0 28 13l-1 1a462 462 0 0 0-20 10l-5 2a376 376 0 0 1-22 9l-3 1-3 2c-1 0-2 0-1-2l2-10 2-11a352 352 0 0 0 3-22h2Zm-5 1a152 152 0 0 1-5 31 288 288 0 0 0-3 14l-7-2-5-2a113 113 0 0 1-8-3l-3-2-6-2-26-13c-2-1-2-1-1-3l5-3 9-3 7-2 14-3a66 66 0 0 0 11-3l3-1 2-1 9-2h4Z" fill="#2D2B27" fill-opacity=".3"/><path d="m242 52-1 2c0 3 3 4 5 3s2-3 1-4c-2-2-3-2-5-1ZM233 53c-2 1 0 4 1 4l2-2c0-2-2-3-3-2ZM226 57c-2 1-1 3 1 3 1 0 2-2 0-3h-1ZM252 58c-1 2 0 3 2 3l1-3h-3ZM248 101l-2 1v3c0 2 1 4 3 5 2 0 5-1 6-3l-1-5c-2-1-4-2-6-1Zm3 3 1 2c-1 2-3 1-3-1 0-1 1-2 2-1ZM235 105c-1 2 0 4 1 4 3 2 5 0 5-3 0-2 0-2-3-2l-3 1ZM225 108c-2 2-2 3-1 4s1 2 3 2l2-1c2-1 2-2 2-3 0-2-1-3-3-3l-3 1ZM238 162c-3 2-4 5-2 8l4 1 3-1c2-2 2-4 0-7l-5-1Zm3 4c1 1 0 2-1 2l-1-1c-1-1 0-2 1-2l1 1ZM250 166c-1 1-2 1-2 3s4 4 6 4c2-1 4-3 3-5-1-3-5-4-7-2Zm4 3v1h-2c-1-1 0-2 1-2l1 1ZM227 168c-3 1-3 2-3 4 1 4 6 2 7-1l-1-3h-3ZM218 174c-1 1 0 4 2 4s3-3 1-4h-3ZM229 0l2 2 2-2h-4ZM249 0h1-1c-1 0-1 0 0 0ZM317 1l2 1 2 1 8 4h4l5 1 5-2 3-1 1-1 4-2 2-2h-10l1 1v1l-1 1-3 1h-6c-5 0-7-1-8-2-2 0-2-1-1-2h-10l2 1ZM448 3c1 4 1 4-2 5l-9 4c-2 1-3 3-4 6l-1 13 2 26c1 4 3 7 5 8l12 2c6 0 12-3 14-7 3-4 3-3 3-22a571 571 0 0 0-2-23 25 25 0 0 0-12-7c-2-1-3-1-3-5V0h-3v3Zm5 8c4 0 11 5 12 7v19l-1 19c-1 3-2 5-4 6l-2 1-1-1c-1-2-3-3-6-3s-6 1-7 3-3 1-5-2c-3-3-3-6-4-21l1-20 4-5c6-3 9-4 13-3Zm0 51 1 2h-7l1-1 5-1Z" fill="#2D2B27" fill-opacity=".3"/><path d="m449 18-1 1-1 1c-1 0-2 0-2 2l2 1c1 0 2 1 1 2l-1 1c-4 0-5 1-3 3h10l3 1v-1c0-2-1-2-4-3l-1-2c-1-1 0-1 2-1h2l1-1-3-2c-2 0-3 0-3-2l-1-1-1 1ZM452 36l-1 2-1 2-1-2-1-1-2 1v1l-2 2c-2 1-2 3 1 3l1 3c0 2 0 3 2 3l1-4 1-3h1v6l1 5 1 1 1-1v-5l1-5 1-1c1-1 1-2-1-2l-1-3v-2h-2ZM510 1v3l1 6c0 7 2 10 8 12 6 3 11 4 18 4 6 0 7-1 10-2 7-3 9-4 12-9l1-3V0h-3a54 54 0 0 1-1 14c-2 4-8 7-15 8a45 45 0 0 1-17-1c-4-1-8-4-9-6l-1-4-1-10-2-1-1 1Z" fill="#2D2B27" fill-opacity=".3"/><path d="M533 1c-2 0-3 1-3 2l2 1 2 1 1 1 2-1 1-1 2-1-2-1-2-1-1-1-2 1ZM581 0c-3 1-6 2-7 4l-3 4-1 8v9l-1 24c1 4 3 7 8 10 3 1 6 2 12 1 5 0 7 0 11-2 3-2 6-5 7-8v-7l1-36c-1-2-7-6-12-7h-15Zm15 3 8 4 1 1v18c0 22-1 25-4 28l-4 1-8-2-6 1-3 2h-1c-2 0-5-3-6-5l-1-2v-7a172 172 0 0 1 1-24c0-8 1-8 2-11 1-2 3-3 6-4h15Zm-4 54h-4c-4 0-5 0-3-1l7 1Z" fill="#2D2B27" fill-opacity=".3"/><path d="m586 7-1 2-1 2c-2 2-2 3-1 4h3v5h2v-3l1-4c2-1 2 0 3 1l1 1 1-1 1-1 2-1-1-1-2-2h-2l-2 1-2-1-1-2h-1ZM586 23v1l-2 1-3 2 3 1h2v5h-2c-3 0-4 0-3 2h2l3 1h4l2-1v-2h-1c-2 0-2-1-2-3v-1h2c3 0 4 0 4-2l-3-1c-3 0-4-1-4-2s-1-2-2-1ZM607 0l2 1h1l1-1h-4ZM621 2a420 420 0 0 1-4 66 288 288 0 0 0-7 57l-1 8-1 5c0 2 1 3 2 3h1l1-8c2-13 3-17 5-17 3 0 7 3 9 6l1 8 1 6h2l1-14a251 251 0 0 1 3-45 342 342 0 0 0 2-28 374 374 0 0 0-1-43V0h-3v12h-2l-4-1h-2V3l-1-3h-3l1 2Zm9 13c2 1 3 3 3 6v9c0 6 0 6-3 4l-3-1h-3V17l1-2h5Zm-1 21 3 4 1 8-1 14-2-1-7-2h-1v-6l1-8 1-6c2-3 3-4 5-3Zm-2 27 4 3v6l-1 17c-1 1-1 0-2-1l-3-2-6-2c-2 1-2 0-1-3l1-5 2-11c1-2 4-3 6-2Zm-3 26 3 3 2 2v4a481 481 0 0 1-4 19l-4-3-4-1h-3l1-3c0-11 1-17 2-21 0-2 4-2 7 0Z" fill="#2D2B27" fill-opacity=".3"/><path d="M680 0v2a138 138 0 0 1 3 12 108 108 0 0 1 4 20 273 273 0 0 0 3 27l1 6a314 314 0 0 1 4 36l1 6a320 320 0 0 1 4 31l1 6c1 4 0 4-1 3a269 269 0 0 1-16-10l1-2c2-2 4-6 5-15l1-4c1 0 2-2 3-7 1-4 0-10-2-13l-8-7c-2-2-6-3-9-3-5 0-14 5-16 10a38 38 0 0 0-3 23l1 2a27 27 0 0 0 2 5l2 2 2 2c1 4 2 5 4 7v5l-5 6a356 356 0 0 0-14 13 255 255 0 0 0 1 45l1 5c0 5 0 5 3 10a115 115 0 0 0 9 13l1 1-1 1h-1l1 17a682 682 0 0 0 5 62l1 5a171 171 0 0 0 5 22c1 1 1 2 2 1v-3l-2-10a346 346 0 0 1-8-92l3 3c5 6 5 6 7 5v-2l-2-2a109 109 0 0 1-11-13l-8-13-1-4-1-6a158 158 0 0 1 0-45l5-4 7-7 3 2 3 5 1 1 5 6c1 1 1 2-1 6-1 2 0 4 1 4 2-1 2-3 9-18l2-9c1-3 1-3 2-2l4 2 4 2 3 2 1 4a657 657 0 0 1-1 36l-1 1-1 1-1 3-8 17-2 3-4 5-1 3v8a89 89 0 0 0-4 12c-1 3 0 6 5 10 2 2 3 3 4 2v-4h1c1 1 2 1 3-1l1-1 2 1c1 3 1 3 3 3v-2l-2-4-2-4-2-3a84 84 0 0 1-6-13l-1-3 1-1 5-7a152 152 0 0 0 11-22l1 13a192 192 0 0 1-3 47 229 229 0 0 1-6 34 72 72 0 0 1-2 9 125 125 0 0 1-2 11l-1 7-1 6a48 48 0 0 1-2 8l-6 23-1 5a227 227 0 0 1-3 9c0 2 0 2-2 3l-6 2-4 2-7 3-9 4-5 3a122 122 0 0 1-16 7 1749 1749 0 0 0-48 21l-5-2a302 302 0 0 0-35-10h-2a107 107 0 0 1-12-3l-5-1-6-2-6-2a139 139 0 0 0-11-2 171 171 0 0 1-21-6l-4-2-5-1a397 397 0 0 1-42-12 801 801 0 0 1-61-16l-10-2-2 1c0 1 0 2 5 3l6 1 21 6 5 1 2 1v10h-1l-9-3-11-3v2l20 7 5 2a206 206 0 0 0 21 6 224 224 0 0 0 26 7l5 1a528 528 0 0 1 23 9 862 862 0 0 0-32 13l-4 2a1474 1474 0 0 1-9 5l8-1 8-4 5-2 2-1 9-3 13-5 2-1 4-1 2-1h3a553 553 0 0 1 55 18l9 1h5l-4-1a81 81 0 0 1-7-2 646 646 0 0 1-57-20v-10a129 129 0 0 1 16 4l6 2 9 2 8 2 8 2 6 2 6 1 10 3 3 1 6 1 7 3 5 1 6 3 1 3v3h3v-8h1l3-2a226 226 0 0 0 16-7l4-2a47 47 0 0 1 6-3l6-2 4-2a381 381 0 0 0 42-19l10-3-3 9-1 5-1 3-10 5-5 2-5 2-4 2a1058 1058 0 0 1-29 12l-10 4-3 1v1l-4 1-2 1h4l6-1 14-6 4-2a305 305 0 0 0 8-3l3-1 3-1 4-2a169 169 0 0 1 13-6 158 158 0 0 0 7-3l3-1h1l-4 10-1 5 2 6 3 4 4 1h2l-3-2c-3-4-5-6-5-8l2-6a58 58 0 0 0 4-10 133 133 0 0 1 3-9l1-6 2-5a629 629 0 0 1 11-39 583 583 0 0 0 11-59 462 462 0 0 0 7-62v-5l1-1 2-2c2-3 4-6 7-7 7-5 21-6 28-2l2 1v-4h-2c-3-2-5-2-11-2a32 32 0 0 0-18 4c-3 1-6 4-8 7l-1 1v-24a244 244 0 0 0-4-64v-4l1-2c1-2 2-3 5-4 3-3 6-3 11-3l8 1c8 2 12 3 14 6 3 2 3 2 4 14a623 623 0 0 1-6-65l-1-5-1-6-1-8-1-5-1-3v-3l-1-6a800 800 0 0 0-7-27l-2 1a152 152 0 0 1 4 20l1 7a104 104 0 0 0 2 10l1 3-1 1-3-2c-3-2-8-3-14-4h-10l-1 1c-2 0-6 2-8 5-2 2-3 2-3 1a137 137 0 0 1-2-17 306 306 0 0 0-6-25l1-1h-4Zm36 40c4 0 8 2 10 3l5 4a291 291 0 0 0 6 23l1 9a1138 1138 0 0 1 2 31l-13-5c-9-3-20-1-25 5l-2 1-1-9a283 283 0 0 0-5-32v-5l-1-5-1-7v-4c2-4 7-8 11-9l7-1 6 1Zm-37 52c3 1 7 4 10 8 2 3 3 9 2 13l-1 1v-2l-1-4-3 1h-2l-3-6-1-1v-2l-3-3-1 2-2 2a199 199 0 0 0-5 8l-6 4h-1l-1 2c0 2 6 1 9-3l6-7c1-2 1-2 2 0 1 3 4 7 7 8h2l-1 10c0 6-2 10-3 12l-5 2-2 2 3 1h2l2 3 2 2-1 2-6 17-4-5-1-1-5-7v-3c1-1 2-2 2-5l1-3 1-1-1-1-1-1-3-3-3-8-1-5c0-2-1-3-2-3l-1 2v1l-1-1v-7l1-8c1-6 3-8 9-12 3-2 7-2 10-1Zm7 149 3 5v4l-2 1h-2l1-4h-2l-1 1v1h-2l3-12 2 4ZM400 368l6 2 6 1a3253 3253 0 0 0 62 18c4 1 4 0 4 6l-1 6-5-1-3-1-10-3-14-4-9-3-13-3-5-1-6-2-6-2-4-1-5-1c-3-1-3-1-4-7v-5h2l5 1Z" fill="#2D2B27" fill-opacity=".3"/><path d="M712 96v4h3c2-1 2-3 1-4h-4ZM725 99v3c2 1 3 0 3-1 0-2-1-2-3-2ZM704 100l-1 3 1 1c2 0 3-1 3-3s-1-2-3-1ZM734 103v3l2-1 1-2-2-1-1 1ZM224 3c-1 2 1 3 3 2V3h-3ZM289 6l-3 3-4 3a554 554 0 0 0-6 4v2l2 1 3-2 4-3 9-8-1-2-4 2ZM381 9c-1 1 1 3 7 10 8 8 9 9 10 7l1-1a1005 1005 0 0 1-18-16ZM494 12a162 162 0 0 0-17 8l1 2h2a211 211 0 0 0 16-9l-2-1ZM536 13h-3l-6 2c-2 2-2 3 0 4 1 1 4 2 10 2l8-1c5-3 5-5 0-7h-9Zm7 3h1l-1 1-7 1-5-1h-1a29 29 0 0 1 13-1ZM500 16l-1 1-1 2-2 14-1 32a532 532 0 0 1-2 56l1 8h1l1-10v-10l2-1h2l2 2 1 8c0 8 1 8 2 8 2 0 2 0 1-17a1393 1393 0 0 1 1-47l1-4v-4c1-1 1-1-1-3-2-3-4-5-7-5h-1V35l1-4v-2l1-9 1-4h-2Zm2 33 2 2 1 4-1 4a74 74 0 0 0-1 9h-5v-7l1-12h3Zm0 22 1 1v8l-1 8h-4v-6l1-11h3Zm0 21 1 6v7h-2l-3-1c-2 0-2 0-1-5l1-8 4 1ZM371 20v13l-1 1h-1l-6 3c-3 3-3 4-4 12v12c0 8 1 10 6 12 2 1 2 2 5 2 5-1 10-2 12-4l2-7V40l-1-5-6-2h-2l-1-6-1-7h-2Zm7 17 3 1 1 12c0 14-1 17-3 19l-7 2c-4 1-8-1-9-3l-1-13 1-13 4-4c3-1 9-2 11-1Z" fill="#2D2B27" fill-opacity=".3"/><path d="m372 44-2 1-2 1 2 2h4l2-1 1-1-2-2-1-1c0-1-1-1-2 1ZM371 53l-1 1-3 1c0 1 1 2 3 2l1 1c1 3 2 3 3 0l2-1c2 0 2-3 0-3l-2-1h-3ZM371 63l1 2 2 1 2-1v-1l-5-1ZM331 25l-2 12c-2 13-2 13 0 13l1-1a153 153 0 0 0 3-24h-2ZM702 28l-2 2c0 2 2 3 3 3 2 0 4-4 2-5h-3ZM195 30a1447 1447 0 0 1-55 4l-16 2-18 1a210 210 0 0 0-16 1l-9 1a163 163 0 0 1-15 1l-5 1a76 76 0 0 0-8 1h-6a404 404 0 0 1-25 2v2h13a170 170 0 0 1 16-1 100 100 0 0 1 13-1 188 188 0 0 1 20-2l6-1h8l12-1a2055 2055 0 0 0 52-5h5v2l1 11v1l-9 10-11 10v5l3 2 2 1 12-1h14c15-2 19-4 16-7l-6-6-4-3a242 242 0 0 0-12-10l-2-1V37l1-2a274 274 0 0 1 30-2l4-1v-1l-4-1h-7Zm-17 28 9 7-7 1a148 148 0 0 0-25 1l1-2 14-13 8 6Zm13 11 1 1v1h-2a137 137 0 0 1-38 1c-1-1 1-1 4-2h6c7-1 26-2 29-1ZM714 30l-2 2c0 1 1 2 3 2l2-2c0-1-1-2-3-2ZM723 33v3c1 1 3 0 3-1 0-2-2-3-3-2ZM695 33l-1 2c0 1 2 2 3 0v-2h-2ZM518 37l-5 10c0 1 0 2 1 1l2-1 4-9-1-1h-1ZM550 38c-1 1-2 1-1 2l6 1h5l1-1-5-2h-6Z" fill="#2D2B27" fill-opacity=".3"/><path d="m107 44-1 7v6l-6 5c-7 6-12 10-13 13-1 1 0 2 2 3l2 1h10l22-1c4-1 5-3 5-5l-3-3a119 119 0 0 1-11-9l-3-3-2-2V44h-2Zm3 17 5 4 4 4h-6a436 436 0 0 0-16-1l9-7c2-2 2-2 4 0Zm12 12c2 1 2 1 0 2-12 1-32 2-32 0l1-1 10-1 9-1 12 1ZM536 45v12l1 9h2V51c-1-6-1-7-3-6ZM48 49l-1 5c0 4 0 5-4 9l-1 2-6 7-3 6c0 3 3 4 13 3a83 83 0 0 0 12-2 36 36 0 0 0 7-1l2-3-2-2-5-5-7-6-3-3v-5l-1-5h-1Zm6 18 4 4h-2l-7 1a1255 1255 0 0 0-7-1l2-3a35 35 0 0 1 3-4l1-2h1l5 5Zm7 8h1-1a110 110 0 0 1-24 3v-1l2-1 3-1h19ZM558 58l-6 6 1 2 9-7v-1c-1-2-2-1-4 0ZM342 63c-5 1-6 2-5 4h3l4-1 2-1c0-2-1-3-4-2ZM395 66v1l7 5h3l-5-5-2-2-3 1ZM600 69v4l3 7c2 0 2-2 1-4v-1l-3-6h-1ZM580 74l-1 3c-2 9-3 11-1 12l3-8 1-4c1-2 0-4-1-4l-1 1ZM347 83c-4 4-5 5-4 6h2l2-2 3-3 2-3v-2h-1l-4 4ZM386 83v2c0 2 4 7 6 8h1c1-1 1-2-1-4l-3-4-2-3-1 1ZM363 85l-1 5-1 5v5c1 1 2 0 2-1l2-10v-4h-2ZM191 86a196 196 0 0 1 4 11c4 8 4 8 5 7l1-1-7-16c-2-2-2-2-3-1ZM126 86c-1 1-1 1 3 9l2 5c1 2 2 2 3 2l1-1-1-2-3-6-2-5-1-1c-1-2-1-2-2-1ZM66 92l-1 1a349 349 0 0 0 10 22l2-2-2-5-1-1-1-2v-2l-1-2-1-2-2-4c-1-3-2-4-3-3ZM158 92l-3 8a244 244 0 0 1-2 8c0 1 0 2 2 2h1l1-6c3-10 3-11 2-12h-1ZM174 97l2 14c2 10 2 10 4 10 1 0 2-1 1-3l-1-5-1-6a208 208 0 0 0-3-10h-2ZM38 99l-3 4a548 548 0 0 0-8 14l2 2c1 0 2 0 2-2l1-4a86 86 0 0 0 3-4l5-10h-2ZM112 99v9l1 9 2 15c1 4 2 6 3 4v-5l-1-5a1969 1969 0 0 0-5-27ZM97 102v1l-4 12-2 8v2c2 1 2 0 3-2l2-7a219 219 0 0 0 4-15c-1-1-2 0-3 1ZM53 106v21h1c2 0 2-1 2-11l-1-10h-2ZM425 118c-6 1-10 3-13 7s-8 16-10 25l-1 3h-2l-4 2h-2l-3 1-8 7-4 6a84 84 0 0 0-8 13l-4 1a245 245 0 0 0-24 5h-1v8a260 260 0 0 0 3 39 260 260 0 0 0 2 26 352 352 0 0 1 3 37 134 134 0 0 1 1 17l1 7c0 4 0 5 2 5h1v-12a244 244 0 0 1-2-16v-14a168 168 0 0 0-2-19 154 154 0 0 0-1-16 176 176 0 0 0-2-15 272 272 0 0 0-1-16c0-1 0-2 3-2l9-2v1l-2 16 1 8a116 116 0 0 0 3 12c2 5 6 10 11 16 6 5 16 8 25 7l10-1v-2h-19l-1-1-11-4-3-3 4-1 11-5 7-7v-2l-5 3a19 19 0 0 1-4 4c-3 2-11 5-13 4h-3l-3-3-2-5-1-3-3-7-1-7h9a2243 2243 0 0 0 37 5l1 3 1 3c2 1 3 0 3-2v-1h1c2 1 4 5 5 11 1 7 2 10 0 37a726 726 0 0 0-1 33c-1 1-2-1-8-9l-5-5h-1c-2 1-1 1 7 11l3 4 1 2 2 1h1v4l1 6c1 0 2-1 2-3l1-1h2l11 2c1 0 2-2 1-3l-7-1-5-1-2-1v-15a397 397 0 0 1 1-46l-1-15v-4l14 6 4 1 2 2 3 1h2l1-2-11-5a130 130 0 0 1-8-3l-6-2-2-1-2-2-5-5-2-2a266 266 0 0 1 2-29v-3h-1c-1-1-2 0-2 4l-1 4a201 201 0 0 0-1 22h-3l-8-2a1988 1988 0 0 0-36-3l3-15 1-6a72 72 0 0 1 4-13l1-3a149 149 0 0 1 13-24l1-1c5-7 8-10 10-11l2-1 2 1c6 3 13 9 17 15a239 239 0 0 1 8 16c0 1-3 5-6 6l-6 4-4-3a61 61 0 0 0-5-5l-2-2-1 2 8 9c1 2 2 2 3 2h1c3 4 11 13 14 14 3 2 6 2 17 2l10-1-1-1-8-1-16-1-7-6-6-6 3-3 5-3c2-3 3-3 3-2l3 4 3 5c1 2 2 3 5 3a160 160 0 0 1 16 4l1-2v-1l-3-1-6-1-4-1c-5-1-5-1-6-3a231 231 0 0 0-8-12c1-1 0-1-1-4a96 96 0 0 0-4-7l-3-5-1-2 1-1 1-2 1-2 1-2h1l3 1 5-2c7-4 11-8 12-12l2-4 3-3c2-6 2-12-1-18-2-4-4-6-10-8h-9Zm9 3 5 3c3 2 5 8 5 12l-1 3h-1a17 17 0 0 1-9-2l-2-1c-3-2-4-2-4-1-2 1 0 3 5 5 3 2 4 2 7 2h3l-3 3-2 4-3 6c-3 3-10 7-12 7l-3-2c-2-3-3-4-2-7l-1-4v-2l-1-2v-3l3-5h3l3-1v-2c-1-1-3-2-6 0l-3 3c-3 5-4 6-3 7l-1 2-4-2a57 57 0 0 1 7-16c2-4 6-6 12-7h8Zm-26 27 4 1h2v8l2 3v3l-2 5c0 1-1 1-2-1a46 46 0 0 0-13-11h2c3-1 5-1 4-2l2-7 1 1Zm-40 38-1 2-7 21-1 2-6 2-5 1h-3a170 170 0 0 1-1-22v-3h1l4-1 6-1a72 72 0 0 1 11-1h2ZM467 121c-3 1-6 4-7 7 0 4 1 11 3 15 3 4 8 5 12 3s6-8 5-17c-1-4-2-6-4-5v3l1 3-3-1-4-1c-1 2 1 4 5 5h2v3c0 3-2 6-3 7-2 2-7 1-8-2-2-2-3-6-3-9l1-4c1-3 4-4 8-4h3v-1l-2-2h-6ZM510 128c-2 1-5 3-5 6l-1 9 1 2 2 2c1 0 2-1 1-4v-8c0-3 1-4 4-4 4 0 4 1 5 6v5c0 2-2 4-5 5l-3 2-2 1c-2 1-6 3-6 5l1 1 2-1 4-2h5l7 2 6 7c1 2 2 2 3 1s0-3-2-5c-3-4-5-6-9-7l-3-1 1-1c3-2 4-4 4-7 1-5-1-11-3-12-2-2-4-2-7-2ZM549 134l-6 3v3c1 1 2 0 4-1 3-3 6-3 11-2 4 1 7 2 9 5l6 8a27 27 0 0 1-2 17l-1 1c-2 2-1 4 1 3s4-4 5-7l1-8-1-7-7-10a22 22 0 0 0-20-5ZM593 137c-2 0-4 3-5 7-1 5 1 13 4 15 1 1 3 2 7 2h4v-2h-3l-6-2c-2-2-3-9-3-12 1-4 2-6 4-6l4 2c3 2 5 9 5 13v5c2 0 2-1 3-4v-6l-4-9-5-3h-5Z" fill="#2D2B27" fill-opacity=".3"/><path d="m347 139-5 3c-3 3-3 8-1 12v3h-2c-5 1-10 5-12 11l-1 2 1 1c1 1 2 0 3-2 2-5 6-8 9-9l3 1c1 2 4 4 6 4h3l-3-3-3-2h5l1 3c2 2 3 5 3 8v4c1 1 2 2 3 1v-3l-1-7c0-2-3-6-4-6l-1-1 1-1 2-2 2-2h2c1-1 2-5 1-8 0-4-1-5-4-6l-4-1h-4Zm6 3 2 1 1 4v1c0-1-2-2-5-2l-3-1c-3-1-4 1-2 3l4 1h3v1l-3 6h-5c-2-3-3-8-1-11s5-4 9-3ZM540 142l-1 4-1 7c0 6 0 8 2 14l7 13 2 1h1c0 1 1 2 4 2a15 15 0 0 0 5-2l2-1 2-1h2l4 2c3 1 3 1 2 4-4 6-10 11-14 11l-2 1c-1 0-2 1-1 2h5c4-2 9-5 13-9l3-8 1-1 8 2 7 7a43 43 0 0 1 5 9l1 2a344 344 0 0 0 7 18l1 5v15l1 2v4a514 514 0 0 0-5 31l-6 1-8 1a868 868 0 0 1-48 3l4 1 4 1 2 2 7 12 3 11 1 7a95 95 0 0 0 2 10c0 4 0 5-3 1l-2-3-3-4-4-7-5-7-2-3-2-3-8-10-3-2a2558 2558 0 0 0 2-44v-7h2a71 71 0 0 0 27-7l2 3c3 4 5 5 8 6s6 0 7-1l4-7c5-5 8-10 10-17l1-8-1-1-2 3-2 9-2 3a45 45 0 0 1-9 13l-1 2-4 1h-2l-2-3-9-10-3-6-3-3-1-2-1-1-4-5-3-4c-1-2-2-3-3-2s-1 1 4 8l5 7 9 13-5 2-20 3h-2v-6c0-7-1-15-3-18l-1-3-2-2-5-1-4-1-1-1-3-1-8-4-2-1 1-4c2-4 2-5 4-5s4-2 4-7c0-2 0-4-2-5l-2-4c0-3-1-5-3-7-5-4-15-4-20 0l-4 7-2 2c-2 1-3 2-3 6l1 5 4 4c3 1 4 3 3 6l-3 2c-3 0-4 1-8 5l-3 3h-9c-3-1-6 1-7 3l-2 7-1 8-1 9h-7a125 125 0 0 1-12-1l-10-3c-3-2-3-2-3-4v-2c-2-1-3 1-3 3l2 4c5 3 15 6 27 6l6 1a690 690 0 0 1-1 44l-7 9a822 822 0 0 1-19 26l4-4a516 516 0 0 1 19-23l2-3c2-2 2-2 2 5a1638 1638 0 0 0 2 50l1-17v-36a1166 1166 0 0 1 67 3c6 0 6 0 5 5a3979 3979 0 0 0-1 46l3 1v-14a1336 1336 0 0 1 2-36l5 7 2 2a749 749 0 0 1 20 30c0 1-1 3-5 5-4 3-5 3-4 5h3a456 456 0 0 0 15-8v-6a735 735 0 0 0-6-27l-7-12-2-3h7a310 310 0 0 0 41-2h2v9a177 177 0 0 0-2 17 208 208 0 0 0 0 27h1a452 452 0 0 1 9-81l1-8a62 62 0 0 1 2-8l3-16 4-21-1-2c-2-1-9-3-16-3l-4-1-4-6-8-7-8-2h-7c-3-1-5-1-4-2l2-9c0-4 0-4 3-5l1-1c0-1-1-2-3-2h-4l-3 1c-4 0-5-1-6-2l-1-3c-2-6-6-10-11-12-3-2-3-2-4-1Zm5 5 2 1 1 1 3 5 1 2a81 81 0 0 1 2 5l8 2h3v2l-1 7c-2 4-5 6-10 7l-3 1-3-5-6-15v-13c0-2 2-2 3 0Zm-44 16 2 2 1 1 1 4c1 5 1 5 3 6l1 3c0 3-1 3-3 4l-3-1h-1l-3 1h-3l-4-1-2 1c-1 2 1 3 8 2h5l-2 4-1 4c1 3 0 4-2 4h-8c-2 0-4-3-4-3l1-3c1-2 0-3-1-4v-1l-3-3-2-2-1-4-1-3h2c2 0 3-1 3-4 1-4 3-6 7-8h4l6 1Zm-16 35c2 2 4 3 8 3l8-2c1-1 4-1 7 1l3 1-6 1a405 405 0 0 0-30-1l6-4 2-1 2 2Zm121-1a144 144 0 0 0 9 2v4l-1 4a372 372 0 0 1-5 20l-1-3a54 54 0 0 0-5-18l-1-2-1-2v-2l-1-2h-1l3-1h4Zm-125 8a858 858 0 0 1 41 0c5 1 6 6 6 22v10l-3-1a1547 1547 0 0 0-70-2l-1-3v-10c1-8 1-13 3-15l4-2 20 1Zm-16 32a565 565 0 0 0 42 1l6 1-1 3-1 2-1 4c-2 3-2 5-1 6l-1 2c-4 4-9 6-15 6-4 1-6 1-10-1-6-2-9-3-12-7l-2-2-1-6-1-7h-1c-1 0-2 2-1 10 0 8 1 11 3 17 2 5 3 6 6 8 4 3 10 5 13 5l2-2c0-1-1-2-3-1l-8-3-6-5c-1-4-4-11-3-12l2 3 3 2h1l5 3h2c3 1 7 2 11 1 7 0 12-3 17-7 2-2 3-4 2-5v-3l2-4a56 56 0 0 1 2-7l10 1h2v2a279 279 0 0 1-2 31l-1 10h-7a648 648 0 0 0-65-2l1-11v-34h3l8 1Z" fill="#2D2B27" fill-opacity=".3"/><path d="m514 249 1 3 3 3v14l-5 8-1 1v2l1 1 4-4a28 28 0 0 0 5-15l-1-8-5-5h-2ZM623 143l-4 2c-2 2-2 8-1 13s2 8 5 9c1 1 5 2 7 1 3 0 4-1 4-3l2-4 1-3c0-4-1-9-3-12-2-2-4-3-7-3h-4Zm7 4c4 3 5 9 2 15l-2 3h-3c-4 0-5-2-6-7-1-4 0-10 1-11l4-1 4 1ZM381 144c-5 1-7 5-8 10v9l2 2c2-1 2-1 1-4v-8l4-6h3l5 6 1 1c2 0 2-4-1-7l-3-2c-1-2-2-2-4-1ZM462 148l-10 7c-1 2-4 7-3 8l1 1 1-1 2-2 1-2v-1l6-5 6-3 3-1c0-2-2-2-7-1ZM476 149l1 2 2 1c2 0 3 1 5 4l2 1 1-2c-1-2-7-7-10-7l-1 1ZM116 157h-2l-4 3-2 2-1 7 1 6v5c-1 3-1 4-4 6s-5 5-6 9l-1 2v5c0 1 2 1 2-1l3-8c1-3 6-7 8-7l2 4 3 5c2 0 2-2 0-6l-3-5v-4c1-3 1-3-1-7l-1-4 1-5 2-2c2-2 5-2 6-2 3 1 6 6 4 7l-4-1-3-1-3 4v4c1 1 2 1 3-2l1-2 6 2c1 1-1 5-3 7l-3 2c-2 1-2 2 0 3h1l2-1 2-2c3-3 4-5 4-9v-9l-6-5h-4ZM172 157l-1 2 3 1c3 0 4 0 5 3l-1 4c-1 0-2-1-2-3l-1-1c-1-2-1-2-4-2l-3-1-1-1-2 2v13l5 6c2 1 8-2 11-6l1-9c0-3-1-6-4-8l-3-1-3 1Zm1 9 3 4h2c2 0-3 6-6 7-1 0-2 0-3-3l-1-6v-4h4l1 2ZM69 161l-4 2c-2 2-3 5-4 13l1 6c1 2 4 3 7 3 3 1 5 0 6-2 2-1 3-3 4-6l1-7v-5l-2-1h-1v5l-1 8-2 4-4 1-5-1-1-3v-2h2c2 0 5-1 7-3l2-8-1-2-1 1-2 5c0 1-1 3-3 3l-3 1 1-7 4-3 3-1c0-1-2-2-4-1ZM141 161c-3 1-6 2-7 5-1 2-1 10 1 13 2 4 8 3 11-2l1-2v-3l1-4c-1-2-3-1-3 3l-4 7h-1c-2 1-2 1-3-1v-7h5c1-1 0-2-2-2l-2-1 2-2h4l2-1c1-2-2-4-5-3ZM599 162l-6 3-2 5-2 10 1 2c1 0 2-1 3-5 0-5 1-8 3-10l5-2a55 55 0 0 1 11 6c2 1 3 1 3-1 0-1-2-3-6-5-5-3-7-3-10-3ZM624 171c-2 0-4 2-5 3-2 1-4 6-5 9v3c1 1 2 0 3-2l4-8a8 8 0 0 1 9-2l2 1 6 5c2 2 3 2 3 1 2-2-4-7-9-9-4-1-5-2-8-1ZM178 179l-1 1-3 4h-1l-2 1c-2 0-3 1-2 2h5l5-4c1-2 1-2 2-1 2 1 6 5 6 7l1 2c2 4 3 9 3 15 0 5 1 6 2 6l1-4a51 51 0 0 0-3-20l-5-6-6-3h-2ZM164 185c-4 5-4 6-5 9s0 4 1 5c1 0 2-1 2-4l1-3 6-8c1-1 0-3-1-3l-4 4ZM539 182h-2c-4 1-10 5-11 7 0 2 2 4 6 6l4 2h3c1-1-1-2-4-4l-1-1 2-1c2 0 2-1 1-2h-7l1-1 7-3c2 0 2 0 3 4a302 302 0 0 0 2 9h3l3 2 6 7c11 11 13 12 14 15l2 3 2 1v-2l2-9a819 819 0 0 0 4-21c-2-1-3 0-4 7l-1 6a342 342 0 0 0-3 10v1l-2-2a469 469 0 0 0-25-28l-2-6h-3Z" fill="#2D2B27" fill-opacity=".3"/><path d="m132 183-5 5h-1l-5-3-2 1 4 4c4 3 4 4 5 9l1 4c1 1 2 0 2-1a21 21 0 0 0-3-13h1l1-1 4-4 1-2c-1-1-2 0-3 1ZM142 183v3l6 5 3 8c0 5 1 6 3 4v-6c-1-5-4-8-8-11-2-3-4-3-4-3ZM662 185l1 9a169 169 0 0 0 4 23l6 6 5 4 2-1-4-5-6-5-2-2v-4a214 214 0 0 0-4-25h-2ZM721 185l-3 3c-2 3-1 5 1 6 3 1 6 0 8-2v-5c-1-2-4-3-6-2Zm3 4v2h-4l3-3 1 1ZM62 187c-6 3-9 9-11 17l1 2c2 0 2-1 3-3 0-4 5-13 8-13l1-1c1-1 1-1 1 1l1 4 2 2 1-4-1-3c0-2-1-2-2-3-2-1-2-1-4 1Z" fill="#2D2B27" fill-opacity=".3"/><path d="M74 186v3l4 10 2 8h-4c-11 1-21 3-25 5l-6 5-1 3 2 3c2 2 7 5 11 6a84 84 0 0 0 21 4l1 6a136 136 0 0 0 1 16v5l-4-1h-7a142 142 0 0 0-37 0 121 121 0 0 0-13 2c-18 2-20 2-19 5h4a198 198 0 0 1 23-3 361 361 0 0 1 44-1c18 2 27 3 37 6 10 4 15 6 17 10l1 5-1 5-2 3-12 6a185 185 0 0 1-67 5 476 476 0 0 0-31-2l6 2a83 83 0 0 0 15 2l1 1 1 3v4l1 6 1 6a503 503 0 0 1 2 47l-5 1-16 4c-7 4-12 9-11 14l8 6c4 2 6 3 14 4h17c11-1 23-6 27-11s4-8 1-11c-3-4-7-5-14-5-7-1-8-1-8 1l1 1 5 1c7 0 11 1 13 3l2 4-3 4c-1 3-9 6-16 8l-15 2c-13 0-22-2-27-7l-2-2c0-2 3-5 6-7s10-5 14-5a162 162 0 0 0 10-1l2-1v-13a729 729 0 0 0-2-37l-1-7a113 113 0 0 0-2-11l5-1 3 1v29a2568 2568 0 0 1 1 45c2 0 2 1 2-38v-36h8a252 252 0 0 0 46-3l4-1a52 52 0 0 0 10-4c5-2 10-6 12-9l1-6-1-6-7-6-14-6-18-4-7-2v-9l13-1a319 319 0 0 0 37-2 1009 1009 0 0 1 2 68l2 1v-9a3035 3035 0 0 0-1-73l1-1h7c9 0 14 0 23-2l12-3c7-4 9-6 9-9 0-2-1-3-3-5-3-3-9-5-15-6h-7a357 357 0 0 0-73-2l-7 1v-2l-1-2v-4l-4-10-4-3Zm77 24a197 197 0 0 1 16 1l15 4c3 2 3 5 1 6a61 61 0 0 1-14 7 175 175 0 0 1-32 2l-1-1c0-3-1-4-2-5-1-2-4-4-6-4h-12a151 151 0 0 1-31 1c-3 1-6 4-6 7l-1 2-12-2c-7-1-11-2-16-6-3-2-3-2-1-4 3-4 12-6 27-8h75Zm-23 13 3 2 2 3-1 16a245 245 0 0 1-49 2c-1-1-2-11-1-15l2-6 12-1h16c10-2 14-2 16-1ZM735 188c-2 1-3 4-1 5h5c2-1 2-2 0-4-1-2-2-2-4-1Zm3 3h-1 1ZM712 190l-3 3v3c1 2 3 2 5 1l1-3c0-4-1-5-3-4Z" fill="#2D2B27" fill-opacity=".3"/><path d="m27 213-3 4a57 57 0 0 0 2 17l1 3 1 6 1 7c1 4 2 5 3 5 1-1 2-1 1-5l-2-6-1-5v-4l-1-2 3 2 6 4 4 4 1 4 2 9c1 1 2-1 2-2l-1-4a231 231 0 0 0-3-19c-1-5-1-6-4-8l-4-4c-6-6-6-6-8-6Zm4 7 6 5c2 2 2 1 3 7a65 65 0 0 0 1 5 60 60 0 0 1-12-8c-1-1-2-3-2-8v-4c1-1 1-1 4 3ZM557 237a252 252 0 0 1-22 13c-2 1-2 2-1 3l6-2c2-2 2-2 3-1l3 1c4 2 9 7 12 12l2 9 1 4 2 1v-4l-1-7a33 33 0 0 0-14-18l-2-1 1-1 1-1 4-2 9-6c2-1 2-2 0-2l-4 2ZM569 336c0 1-1 2-3 2-7 2-9 3-16 3l-8-1-3 1c0 1 0 2 2 2l9 1c8 0 10-1 18-3 6-2 6-3 4-5h-3ZM355 416c-1 1 0 1 2 2a297 297 0 0 1 10 5l7 1h3l-5-2-15-7-2 1Z" fill="#2D2B27" fill-opacity=".3"/></svg>