<svg width="50" height="51" fill="none" xmlns="http://www.w3.org/2000/svg"><path fill-rule="evenodd" clip-rule="evenodd" d="M42.38 7.71A24.48 24.48 0 0 0 24.96.5 24.67 24.67 0 0 0 3.6 37.44L.1 50.2l13.06-3.42A24.67 24.67 0 0 0 49.6 25.14c0-6.58-2.56-12.77-7.2-17.43Zm-17.42 37.9h-.01c-3.68 0-7.28-.98-10.42-2.85l-.75-.44-7.75 2.03L8.1 36.8l-.49-.78A20.5 20.5 0 0 1 24.96 4.65c5.47 0 10.61 2.13 14.48 6a20.5 20.5 0 0 1-14.48 34.96Z" fill="#2CB742"/><path fill-rule="evenodd" clip-rule="evenodd" d="M36.19 30.28c-.62-.3-3.65-1.8-4.2-2-.57-.2-.98-.31-1.4.3-.4.62-1.58 2-1.94 2.42-.36.41-.72.46-1.34.15-.61-.3-2.6-.95-4.95-3.05a18.55 18.55 0 0 1-3.42-4.27c-.36-.61-.04-.94.27-1.25.28-.28.61-.72.92-1.08.3-.36.41-.62.62-1.03.2-.4.1-.77-.05-1.08-.16-.3-1.39-3.33-1.9-4.57-.5-1.2-1-1.03-1.39-1.05a24.6 24.6 0 0 0-1.18-.02c-.4 0-1.07.15-1.64.77-.56.61-2.15 2.1-2.15 5.13s2.2 5.96 2.51 6.37c.3.41 4.34 6.63 10.52 9.3 1.46.63 2.61 1 3.5 1.29 1.48.47 2.82.4 3.88.24 1.19-.17 3.64-1.49 4.16-2.92.51-1.44.51-2.67.36-2.93-.16-.26-.57-.41-1.18-.72Z" fill="#2CB742"/></svg>